<mxfile host="app.diagrams.net" modified="2024-06-10T19:07:18.990Z" agent="Mozilla/5.0 (Windows NT 10.0; Win64; x64) AppleWebKit/537.36 (KHTML, like Gecko) Chrome/125.0.0.0 Safari/537.36" etag="M_NSTvcpP3AMUBXLqAw1" version="24.5.2" type="github">
  <diagram name="Página-1" id="vKtlofxQi3k7T-awhL2F">
    <mxGraphModel dx="2183" dy="1208" grid="1" gridSize="10" guides="1" tooltips="1" connect="1" arrows="1" fold="1" page="1" pageScale="1" pageWidth="2339" pageHeight="3300" math="0" shadow="0">
      <root>
        <mxCell id="0" />
        <mxCell id="1" parent="0" />
        <mxCell id="aYIWuo1kJYECvoePrchr-196" value="" style="swimlane;startSize=0;" vertex="1" collapsed="1" parent="1">
          <mxGeometry x="900" y="580" width="290" height="190" as="geometry">
            <mxRectangle x="900" y="580" width="2000" height="1650" as="alternateBounds" />
          </mxGeometry>
        </mxCell>
        <mxCell id="aYIWuo1kJYECvoePrchr-383" style="edgeStyle=orthogonalEdgeStyle;rounded=0;orthogonalLoop=1;jettySize=auto;html=1;" edge="1" parent="aYIWuo1kJYECvoePrchr-196" source="aYIWuo1kJYECvoePrchr-384">
          <mxGeometry relative="1" as="geometry">
            <mxPoint x="640" y="210" as="targetPoint" />
          </mxGeometry>
        </mxCell>
        <mxCell id="aYIWuo1kJYECvoePrchr-384" value="" style="whiteSpace=wrap;html=1;fillColor=#B2FF2E;strokeColor=#d6b656;" vertex="1" parent="aYIWuo1kJYECvoePrchr-196">
          <mxGeometry x="365" y="320" width="1270" height="1130" as="geometry" />
        </mxCell>
        <mxCell id="aYIWuo1kJYECvoePrchr-385" value="" style="whiteSpace=wrap;html=1;fillColor=#e1d5e7;strokeColor=#9673a6;" vertex="1" parent="aYIWuo1kJYECvoePrchr-196">
          <mxGeometry x="420" y="330" width="850" height="480" as="geometry" />
        </mxCell>
        <mxCell id="aYIWuo1kJYECvoePrchr-386" value="CONTROLLER&lt;div&gt;ASSIST&lt;/div&gt;&lt;div&gt;&lt;br&gt;&lt;/div&gt;" style="whiteSpace=wrap;html=1;aspect=fixed;" vertex="1" parent="aYIWuo1kJYECvoePrchr-196">
          <mxGeometry x="577" y="110" width="100" height="100" as="geometry" />
        </mxCell>
        <mxCell id="aYIWuo1kJYECvoePrchr-387" value="&lt;div&gt;LLM COMPLETIONS&lt;/div&gt;&lt;div&gt;&lt;br&gt;&lt;/div&gt;" style="whiteSpace=wrap;html=1;aspect=fixed;" vertex="1" parent="aYIWuo1kJYECvoePrchr-196">
          <mxGeometry x="1010" y="170" width="100" height="100" as="geometry" />
        </mxCell>
        <mxCell id="aYIWuo1kJYECvoePrchr-388" value="&lt;div&gt;SERVICE&lt;/div&gt;&lt;div&gt;ASSIST&lt;/div&gt;&lt;div&gt;&lt;br&gt;&lt;/div&gt;" style="whiteSpace=wrap;html=1;aspect=fixed;" vertex="1" parent="aYIWuo1kJYECvoePrchr-196">
          <mxGeometry x="540" y="398" width="100" height="100" as="geometry" />
        </mxCell>
        <mxCell id="aYIWuo1kJYECvoePrchr-389" value="" style="edgeStyle=orthogonalEdgeStyle;rounded=0;orthogonalLoop=1;jettySize=auto;html=1;fillColor=#dae8fc;strokeColor=#6c8ebf;" edge="1" parent="aYIWuo1kJYECvoePrchr-196" source="aYIWuo1kJYECvoePrchr-390" target="aYIWuo1kJYECvoePrchr-386">
          <mxGeometry relative="1" as="geometry" />
        </mxCell>
        <mxCell id="aYIWuo1kJYECvoePrchr-390" value="TEXT" style="shape=step;perimeter=stepPerimeter;whiteSpace=wrap;html=1;fixedSize=1;fillColor=#dae8fc;strokeColor=#6c8ebf;" vertex="1" parent="aYIWuo1kJYECvoePrchr-196">
          <mxGeometry x="420" y="140" width="120" height="40" as="geometry" />
        </mxCell>
        <mxCell id="aYIWuo1kJYECvoePrchr-391" value="" style="shape=flexArrow;endArrow=classic;html=1;rounded=0;exitX=0.5;exitY=1;exitDx=0;exitDy=0;entryX=0.5;entryY=0;entryDx=0;entryDy=0;" edge="1" parent="aYIWuo1kJYECvoePrchr-196" source="aYIWuo1kJYECvoePrchr-386" target="aYIWuo1kJYECvoePrchr-388">
          <mxGeometry width="50" height="50" relative="1" as="geometry">
            <mxPoint x="580" y="220" as="sourcePoint" />
            <mxPoint x="630" y="170" as="targetPoint" />
          </mxGeometry>
        </mxCell>
        <mxCell id="aYIWuo1kJYECvoePrchr-392" value="TEXT" style="shape=step;perimeter=stepPerimeter;whiteSpace=wrap;html=1;fixedSize=1;fillColor=#dae8fc;strokeColor=#6c8ebf;" vertex="1" parent="aYIWuo1kJYECvoePrchr-196">
          <mxGeometry x="500" y="230" width="120" height="40" as="geometry" />
        </mxCell>
        <mxCell id="aYIWuo1kJYECvoePrchr-393" value="" style="edgeStyle=orthogonalEdgeStyle;rounded=0;orthogonalLoop=1;jettySize=auto;html=1;" edge="1" parent="aYIWuo1kJYECvoePrchr-196" source="aYIWuo1kJYECvoePrchr-394" target="aYIWuo1kJYECvoePrchr-409">
          <mxGeometry relative="1" as="geometry" />
        </mxCell>
        <mxCell id="aYIWuo1kJYECvoePrchr-394" value="" style="swimlane;startSize=0;" vertex="1" collapsed="1" parent="aYIWuo1kJYECvoePrchr-196">
          <mxGeometry x="930" y="380" width="170" height="90" as="geometry">
            <mxRectangle x="1100" y="1050" width="580" height="470" as="alternateBounds" />
          </mxGeometry>
        </mxCell>
        <mxCell id="aYIWuo1kJYECvoePrchr-395" value="" style="whiteSpace=wrap;html=1;aspect=fixed;fillColor=#d5e8d4;strokeColor=#82b366;" vertex="1" parent="aYIWuo1kJYECvoePrchr-394">
          <mxGeometry x="10" y="20" width="340" height="340" as="geometry" />
        </mxCell>
        <mxCell id="aYIWuo1kJYECvoePrchr-396" value="asistente&lt;div&gt;openAI&lt;/div&gt;" style="whiteSpace=wrap;html=1;aspect=fixed;" vertex="1" parent="aYIWuo1kJYECvoePrchr-394">
          <mxGeometry x="230" y="100" width="80" height="80" as="geometry" />
        </mxCell>
        <mxCell id="aYIWuo1kJYECvoePrchr-397" value="Instrucciones" style="shape=step;perimeter=stepPerimeter;whiteSpace=wrap;html=1;fixedSize=1;" vertex="1" parent="aYIWuo1kJYECvoePrchr-394">
          <mxGeometry x="10" y="100" width="150" height="30" as="geometry" />
        </mxCell>
        <mxCell id="aYIWuo1kJYECvoePrchr-398" value="Misión" style="shape=step;perimeter=stepPerimeter;whiteSpace=wrap;html=1;fixedSize=1;" vertex="1" parent="aYIWuo1kJYECvoePrchr-394">
          <mxGeometry x="10" y="50" width="150" height="30" as="geometry" />
        </mxCell>
        <mxCell id="aYIWuo1kJYECvoePrchr-399" value="comandos" style="shape=step;perimeter=stepPerimeter;whiteSpace=wrap;html=1;fixedSize=1;" vertex="1" parent="aYIWuo1kJYECvoePrchr-394">
          <mxGeometry x="10" y="155" width="150" height="30" as="geometry" />
        </mxCell>
        <mxCell id="aYIWuo1kJYECvoePrchr-400" value="PERSONA" style="shape=step;perimeter=stepPerimeter;whiteSpace=wrap;html=1;fixedSize=1;" vertex="1" parent="aYIWuo1kJYECvoePrchr-394">
          <mxGeometry x="10" y="210" width="150" height="30" as="geometry" />
        </mxCell>
        <mxCell id="aYIWuo1kJYECvoePrchr-401" value="&lt;div&gt;NORMAS&lt;/div&gt;" style="shape=step;perimeter=stepPerimeter;whiteSpace=wrap;html=1;fixedSize=1;" vertex="1" parent="aYIWuo1kJYECvoePrchr-394">
          <mxGeometry x="10" y="270" width="150" height="30" as="geometry" />
        </mxCell>
        <mxCell id="aYIWuo1kJYECvoePrchr-402" value="&lt;div&gt;examples&lt;/div&gt;" style="shape=step;perimeter=stepPerimeter;whiteSpace=wrap;html=1;fixedSize=1;" vertex="1" parent="aYIWuo1kJYECvoePrchr-394">
          <mxGeometry x="180" y="270" width="150" height="30" as="geometry" />
        </mxCell>
        <mxCell id="aYIWuo1kJYECvoePrchr-403" value="model" style="rounded=1;whiteSpace=wrap;html=1;" vertex="1" parent="aYIWuo1kJYECvoePrchr-394">
          <mxGeometry x="30" y="390" width="110" height="40" as="geometry" />
        </mxCell>
        <mxCell id="aYIWuo1kJYECvoePrchr-404" value="tools" style="rounded=1;whiteSpace=wrap;html=1;" vertex="1" parent="aYIWuo1kJYECvoePrchr-394">
          <mxGeometry x="180" y="390" width="110" height="40" as="geometry" />
        </mxCell>
        <mxCell id="aYIWuo1kJYECvoePrchr-405" value="temperature" style="rounded=1;whiteSpace=wrap;html=1;" vertex="1" parent="aYIWuo1kJYECvoePrchr-394">
          <mxGeometry x="440" y="320" width="110" height="40" as="geometry" />
        </mxCell>
        <mxCell id="aYIWuo1kJYECvoePrchr-406" value="top-p" style="rounded=1;whiteSpace=wrap;html=1;" vertex="1" parent="aYIWuo1kJYECvoePrchr-394">
          <mxGeometry x="440" y="390" width="110" height="40" as="geometry" />
        </mxCell>
        <mxCell id="aYIWuo1kJYECvoePrchr-407" value="assist_id" style="shape=step;perimeter=stepPerimeter;whiteSpace=wrap;html=1;fixedSize=1;fillColor=#dae8fc;strokeColor=#6c8ebf;" vertex="1" parent="aYIWuo1kJYECvoePrchr-196">
          <mxGeometry x="500" y="280" width="120" height="40" as="geometry" />
        </mxCell>
        <mxCell id="aYIWuo1kJYECvoePrchr-408" value="" style="endArrow=classic;html=1;rounded=0;exitX=1;exitY=0.5;exitDx=0;exitDy=0;entryX=0;entryY=0.5;entryDx=0;entryDy=0;" edge="1" parent="aYIWuo1kJYECvoePrchr-196" source="aYIWuo1kJYECvoePrchr-388" target="aYIWuo1kJYECvoePrchr-394">
          <mxGeometry width="50" height="50" relative="1" as="geometry">
            <mxPoint x="610" y="390" as="sourcePoint" />
            <mxPoint x="660" y="340" as="targetPoint" />
          </mxGeometry>
        </mxCell>
        <mxCell id="aYIWuo1kJYECvoePrchr-409" value="ASISTENTE&lt;div&gt;OPENAI&lt;/div&gt;" style="text;html=1;align=center;verticalAlign=middle;resizable=0;points=[];autosize=1;strokeColor=none;fillColor=none;" vertex="1" parent="aYIWuo1kJYECvoePrchr-196">
          <mxGeometry x="830" y="380" width="90" height="40" as="geometry" />
        </mxCell>
        <mxCell id="aYIWuo1kJYECvoePrchr-410" value="" style="swimlane;startSize=0;" vertex="1" collapsed="1" parent="aYIWuo1kJYECvoePrchr-196">
          <mxGeometry x="770" y="620" width="170" height="90" as="geometry">
            <mxRectangle x="940" y="1290" width="410" height="160" as="alternateBounds" />
          </mxGeometry>
        </mxCell>
        <mxCell id="aYIWuo1kJYECvoePrchr-411" value="" style="whiteSpace=wrap;html=1;fillColor=#f8cecc;strokeColor=#b85450;" vertex="1" parent="aYIWuo1kJYECvoePrchr-410">
          <mxGeometry x="10" y="20" width="340" height="130" as="geometry" />
        </mxCell>
        <mxCell id="aYIWuo1kJYECvoePrchr-412" value="thread" style="whiteSpace=wrap;html=1;aspect=fixed;" vertex="1" parent="aYIWuo1kJYECvoePrchr-410">
          <mxGeometry x="230" y="45" width="80" height="80" as="geometry" />
        </mxCell>
        <mxCell id="aYIWuo1kJYECvoePrchr-413" value="asistente_id" style="shape=step;perimeter=stepPerimeter;whiteSpace=wrap;html=1;fixedSize=1;" vertex="1" parent="aYIWuo1kJYECvoePrchr-410">
          <mxGeometry x="20" y="60" width="150" height="30" as="geometry" />
        </mxCell>
        <mxCell id="aYIWuo1kJYECvoePrchr-414" value="" style="endArrow=classic;html=1;rounded=0;exitX=0.564;exitY=0.993;exitDx=0;exitDy=0;entryX=0.5;entryY=0;entryDx=0;entryDy=0;exitPerimeter=0;" edge="1" parent="aYIWuo1kJYECvoePrchr-196" source="aYIWuo1kJYECvoePrchr-394" target="aYIWuo1kJYECvoePrchr-410">
          <mxGeometry width="50" height="50" relative="1" as="geometry">
            <mxPoint x="710" y="720" as="sourcePoint" />
            <mxPoint x="760" y="670" as="targetPoint" />
          </mxGeometry>
        </mxCell>
        <mxCell id="aYIWuo1kJYECvoePrchr-415" value="&lt;div&gt;THREAD&lt;/div&gt;&lt;div&gt;OPENAI&lt;/div&gt;" style="text;html=1;align=center;verticalAlign=middle;resizable=0;points=[];autosize=1;strokeColor=none;fillColor=none;" vertex="1" parent="aYIWuo1kJYECvoePrchr-196">
          <mxGeometry x="800" y="580" width="70" height="40" as="geometry" />
        </mxCell>
        <mxCell id="aYIWuo1kJYECvoePrchr-416" value="" style="swimlane;startSize=0;" vertex="1" collapsed="1" parent="aYIWuo1kJYECvoePrchr-196">
          <mxGeometry x="610" y="860" width="170" height="90" as="geometry">
            <mxRectangle x="780" y="1530" width="550" height="250" as="alternateBounds" />
          </mxGeometry>
        </mxCell>
        <mxCell id="aYIWuo1kJYECvoePrchr-417" value="" style="whiteSpace=wrap;html=1;fillColor=#f8cecc;strokeColor=#b85450;" vertex="1" parent="aYIWuo1kJYECvoePrchr-416">
          <mxGeometry x="10" y="20" width="410" height="180" as="geometry" />
        </mxCell>
        <mxCell id="aYIWuo1kJYECvoePrchr-418" value="RUN" style="whiteSpace=wrap;html=1;aspect=fixed;" vertex="1" parent="aYIWuo1kJYECvoePrchr-416">
          <mxGeometry x="230" y="45" width="80" height="80" as="geometry" />
        </mxCell>
        <mxCell id="aYIWuo1kJYECvoePrchr-419" value="asistente_id" style="shape=step;perimeter=stepPerimeter;whiteSpace=wrap;html=1;fixedSize=1;" vertex="1" parent="aYIWuo1kJYECvoePrchr-416">
          <mxGeometry x="20" y="30" width="140" height="20" as="geometry" />
        </mxCell>
        <mxCell id="aYIWuo1kJYECvoePrchr-420" value="thread_id" style="shape=step;perimeter=stepPerimeter;whiteSpace=wrap;html=1;fixedSize=1;" vertex="1" parent="aYIWuo1kJYECvoePrchr-416">
          <mxGeometry x="20" y="60" width="140" height="20" as="geometry" />
        </mxCell>
        <mxCell id="aYIWuo1kJYECvoePrchr-421" value="start message user" style="shape=step;perimeter=stepPerimeter;whiteSpace=wrap;html=1;fixedSize=1;" vertex="1" parent="aYIWuo1kJYECvoePrchr-416">
          <mxGeometry x="20" y="90" width="140" height="20" as="geometry" />
        </mxCell>
        <mxCell id="aYIWuo1kJYECvoePrchr-422" value="add more instructs" style="shape=step;perimeter=stepPerimeter;whiteSpace=wrap;html=1;fixedSize=1;fillColor=#a20025;fontColor=#ffffff;strokeColor=#6F0000;" vertex="1" parent="aYIWuo1kJYECvoePrchr-416">
          <mxGeometry x="20" y="125" width="140" height="20" as="geometry" />
        </mxCell>
        <mxCell id="aYIWuo1kJYECvoePrchr-423" value="add more tools" style="shape=step;perimeter=stepPerimeter;whiteSpace=wrap;html=1;fixedSize=1;fillColor=#a20025;fontColor=#ffffff;strokeColor=#6F0000;" vertex="1" parent="aYIWuo1kJYECvoePrchr-416">
          <mxGeometry x="20" y="160" width="140" height="20" as="geometry" />
        </mxCell>
        <mxCell id="aYIWuo1kJYECvoePrchr-424" value="" style="endArrow=classic;html=1;rounded=0;exitX=0;exitY=0.5;exitDx=0;exitDy=0;entryX=1;entryY=0.5;entryDx=0;entryDy=0;" edge="1" parent="aYIWuo1kJYECvoePrchr-196" source="aYIWuo1kJYECvoePrchr-410" target="aYIWuo1kJYECvoePrchr-388">
          <mxGeometry width="50" height="50" relative="1" as="geometry">
            <mxPoint x="990" y="790" as="sourcePoint" />
            <mxPoint x="1040" y="740" as="targetPoint" />
          </mxGeometry>
        </mxCell>
        <mxCell id="aYIWuo1kJYECvoePrchr-425" value="" style="shape=flexArrow;endArrow=classic;html=1;rounded=0;exitX=0.5;exitY=1;exitDx=0;exitDy=0;entryX=0.25;entryY=0;entryDx=0;entryDy=0;" edge="1" parent="aYIWuo1kJYECvoePrchr-196" source="aYIWuo1kJYECvoePrchr-388" target="aYIWuo1kJYECvoePrchr-416">
          <mxGeometry width="50" height="50" relative="1" as="geometry">
            <mxPoint x="890" y="960" as="sourcePoint" />
            <mxPoint x="940" y="910" as="targetPoint" />
          </mxGeometry>
        </mxCell>
        <mxCell id="aYIWuo1kJYECvoePrchr-426" value="&lt;div&gt;RUN&lt;/div&gt;&lt;div&gt;OPENAI&lt;/div&gt;" style="text;html=1;align=center;verticalAlign=middle;resizable=0;points=[];autosize=1;strokeColor=none;fillColor=none;" vertex="1" parent="aYIWuo1kJYECvoePrchr-196">
          <mxGeometry x="525" y="885" width="70" height="40" as="geometry" />
        </mxCell>
        <mxCell id="aYIWuo1kJYECvoePrchr-427" style="edgeStyle=orthogonalEdgeStyle;rounded=0;orthogonalLoop=1;jettySize=auto;html=1;entryX=0;entryY=0.5;entryDx=0;entryDy=0;" edge="1" parent="aYIWuo1kJYECvoePrchr-196" source="aYIWuo1kJYECvoePrchr-428" target="aYIWuo1kJYECvoePrchr-429">
          <mxGeometry relative="1" as="geometry" />
        </mxCell>
        <mxCell id="aYIWuo1kJYECvoePrchr-428" value="PLAY" style="triangle;whiteSpace=wrap;html=1;" vertex="1" parent="aYIWuo1kJYECvoePrchr-196">
          <mxGeometry x="660" y="1030" width="190" height="120" as="geometry" />
        </mxCell>
        <mxCell id="aYIWuo1kJYECvoePrchr-429" value="" style="swimlane;startSize=0;fillColor=#B5739D;strokeColor=#6c8ebf;gradientColor=none;swimlaneFillColor=default;" vertex="1" collapsed="1" parent="aYIWuo1kJYECvoePrchr-196">
          <mxGeometry x="975" y="1045" width="170" height="90" as="geometry">
            <mxRectangle x="1145" y="1715" width="840" height="815" as="alternateBounds" />
          </mxGeometry>
        </mxCell>
        <mxCell id="aYIWuo1kJYECvoePrchr-430" value="" style="shape=flexArrow;endArrow=classic;html=1;rounded=0;entryX=0;entryY=0.5;entryDx=0;entryDy=0;fillColor=#f8cecc;strokeColor=#b85450;" edge="1" parent="aYIWuo1kJYECvoePrchr-429" source="aYIWuo1kJYECvoePrchr-429" target="aYIWuo1kJYECvoePrchr-433">
          <mxGeometry width="50" height="50" relative="1" as="geometry">
            <mxPoint x="100" y="407.5" as="sourcePoint" />
            <mxPoint x="300" y="37.5" as="targetPoint" />
          </mxGeometry>
        </mxCell>
        <mxCell id="aYIWuo1kJYECvoePrchr-431" style="edgeStyle=orthogonalEdgeStyle;rounded=0;orthogonalLoop=1;jettySize=auto;html=1;" edge="1" parent="aYIWuo1kJYECvoePrchr-429" source="aYIWuo1kJYECvoePrchr-433" target="aYIWuo1kJYECvoePrchr-449">
          <mxGeometry relative="1" as="geometry" />
        </mxCell>
        <mxCell id="aYIWuo1kJYECvoePrchr-432" style="edgeStyle=orthogonalEdgeStyle;rounded=0;orthogonalLoop=1;jettySize=auto;html=1;" edge="1" parent="aYIWuo1kJYECvoePrchr-429" source="aYIWuo1kJYECvoePrchr-461" target="aYIWuo1kJYECvoePrchr-444">
          <mxGeometry relative="1" as="geometry">
            <Array as="points">
              <mxPoint x="185" y="447.5" />
            </Array>
          </mxGeometry>
        </mxCell>
        <mxCell id="aYIWuo1kJYECvoePrchr-433" value="STATUS" style="whiteSpace=wrap;html=1;aspect=fixed;fillColor=#f8cecc;strokeColor=#b85450;" vertex="1" parent="aYIWuo1kJYECvoePrchr-429">
          <mxGeometry x="340" y="337.5" width="120" height="120" as="geometry" />
        </mxCell>
        <mxCell id="aYIWuo1kJYECvoePrchr-434" style="edgeStyle=orthogonalEdgeStyle;rounded=0;orthogonalLoop=1;jettySize=auto;html=1;" edge="1" parent="aYIWuo1kJYECvoePrchr-429" source="aYIWuo1kJYECvoePrchr-435">
          <mxGeometry relative="1" as="geometry">
            <mxPoint x="320" y="387.5" as="targetPoint" />
          </mxGeometry>
        </mxCell>
        <mxCell id="aYIWuo1kJYECvoePrchr-435" value="&lt;div style=&quot;color: rgb(204, 204, 204); background-color: rgb(31, 31, 31); font-family: Consolas, &amp;quot;Courier New&amp;quot;, monospace; font-size: 14px; line-height: 19px; white-space: pre;&quot;&gt;&lt;span style=&quot;color: #9cdcfe;&quot;&gt;ESTADO_RUN_QUEUED&lt;/span&gt;&lt;/div&gt;" style="shape=card;whiteSpace=wrap;html=1;size=0;fillColor=#fff2cc;strokeColor=#d6b656;" vertex="1" parent="aYIWuo1kJYECvoePrchr-429">
          <mxGeometry x="390" y="227.5" width="40" height="50" as="geometry" />
        </mxCell>
        <mxCell id="aYIWuo1kJYECvoePrchr-436" style="edgeStyle=orthogonalEdgeStyle;rounded=0;orthogonalLoop=1;jettySize=auto;html=1;" edge="1" parent="aYIWuo1kJYECvoePrchr-429" source="aYIWuo1kJYECvoePrchr-437">
          <mxGeometry relative="1" as="geometry">
            <mxPoint x="250" y="375" as="targetPoint" />
            <Array as="points">
              <mxPoint x="575" y="187.5" />
              <mxPoint x="251" y="187.5" />
              <mxPoint x="251" y="367.5" />
              <mxPoint x="250" y="367.5" />
            </Array>
          </mxGeometry>
        </mxCell>
        <mxCell id="aYIWuo1kJYECvoePrchr-437" value="&lt;div style=&quot;color: rgb(204, 204, 204); background-color: rgb(31, 31, 31); font-family: Consolas, &amp;quot;Courier New&amp;quot;, monospace; font-size: 14px; line-height: 19px; white-space: pre;&quot;&gt;&lt;div style=&quot;line-height: 19px;&quot;&gt;&lt;span style=&quot;color: #9cdcfe;&quot;&gt;ESTADO_RUN_IN_PROGRESS&lt;/span&gt;&lt;/div&gt;&lt;/div&gt;" style="shape=card;whiteSpace=wrap;html=1;fillColor=#ffe6cc;strokeColor=#d79b00;" vertex="1" parent="aYIWuo1kJYECvoePrchr-429">
          <mxGeometry x="550" y="227.5" width="50" height="80" as="geometry" />
        </mxCell>
        <mxCell id="aYIWuo1kJYECvoePrchr-438" style="edgeStyle=orthogonalEdgeStyle;rounded=0;orthogonalLoop=1;jettySize=auto;html=1;exitX=0;exitY=0;exitDx=30;exitDy=0;exitPerimeter=0;" edge="1" parent="aYIWuo1kJYECvoePrchr-429" source="aYIWuo1kJYECvoePrchr-439">
          <mxGeometry relative="1" as="geometry">
            <mxPoint x="180" y="365" as="targetPoint" />
            <Array as="points">
              <mxPoint x="690" y="147.5" />
              <mxPoint x="181" y="147.5" />
              <mxPoint x="181" y="327.5" />
              <mxPoint x="180" y="327.5" />
            </Array>
          </mxGeometry>
        </mxCell>
        <mxCell id="aYIWuo1kJYECvoePrchr-439" value="&lt;div style=&quot;color: rgb(204, 204, 204); background-color: rgb(31, 31, 31); font-family: Consolas, &amp;quot;Courier New&amp;quot;, monospace; font-size: 14px; line-height: 19px; white-space: pre;&quot;&gt;&lt;div style=&quot;line-height: 19px;&quot;&gt;&lt;span style=&quot;color: #9cdcfe;&quot;&gt;ESTADO_RUN_REQUIRED_ACTION&lt;/span&gt;&lt;/div&gt;&lt;/div&gt;" style="shape=card;whiteSpace=wrap;html=1;fillColor=#dae8fc;strokeColor=#6c8ebf;" vertex="1" parent="aYIWuo1kJYECvoePrchr-429">
          <mxGeometry x="660" y="142.5" width="50" height="60" as="geometry" />
        </mxCell>
        <mxCell id="aYIWuo1kJYECvoePrchr-440" style="edgeStyle=orthogonalEdgeStyle;rounded=0;orthogonalLoop=1;jettySize=auto;html=1;entryX=0.5;entryY=1;entryDx=0;entryDy=0;entryPerimeter=0;" edge="1" parent="aYIWuo1kJYECvoePrchr-429" source="aYIWuo1kJYECvoePrchr-433" target="aYIWuo1kJYECvoePrchr-439">
          <mxGeometry relative="1" as="geometry" />
        </mxCell>
        <mxCell id="aYIWuo1kJYECvoePrchr-441" style="edgeStyle=orthogonalEdgeStyle;rounded=0;orthogonalLoop=1;jettySize=auto;html=1;entryX=0.5;entryY=1;entryDx=0;entryDy=0;entryPerimeter=0;" edge="1" parent="aYIWuo1kJYECvoePrchr-429" source="aYIWuo1kJYECvoePrchr-433" target="aYIWuo1kJYECvoePrchr-437">
          <mxGeometry relative="1" as="geometry" />
        </mxCell>
        <mxCell id="aYIWuo1kJYECvoePrchr-442" style="edgeStyle=orthogonalEdgeStyle;rounded=0;orthogonalLoop=1;jettySize=auto;html=1;entryX=0.5;entryY=1;entryDx=0;entryDy=0;entryPerimeter=0;" edge="1" parent="aYIWuo1kJYECvoePrchr-429" source="aYIWuo1kJYECvoePrchr-454" target="aYIWuo1kJYECvoePrchr-435">
          <mxGeometry relative="1" as="geometry" />
        </mxCell>
        <mxCell id="aYIWuo1kJYECvoePrchr-443" value="RETRY" style="ellipse;whiteSpace=wrap;html=1;aspect=fixed;fillColor=#ffe6cc;strokeColor=#d79b00;" vertex="1" parent="aYIWuo1kJYECvoePrchr-429">
          <mxGeometry x="560" y="347.5" width="70" height="70" as="geometry" />
        </mxCell>
        <mxCell id="aYIWuo1kJYECvoePrchr-444" value="&lt;div style=&quot;color: rgb(204, 204, 204); background-color: rgb(31, 31, 31); font-family: Consolas, &amp;quot;Courier New&amp;quot;, monospace; font-size: 14px; line-height: 19px; white-space: pre;&quot;&gt;&lt;div style=&quot;line-height: 19px;&quot;&gt;&lt;div style=&quot;line-height: 19px;&quot;&gt;&lt;span style=&quot;color: #9cdcfe;&quot;&gt;ESTADO_RUN_CANCELLING&lt;/span&gt;&lt;/div&gt;&lt;/div&gt;&lt;/div&gt;" style="shape=card;whiteSpace=wrap;html=1;fillColor=#f8cecc;strokeColor=#b85450;" vertex="1" parent="aYIWuo1kJYECvoePrchr-429">
          <mxGeometry x="160" y="537.5" width="50" height="60" as="geometry" />
        </mxCell>
        <mxCell id="aYIWuo1kJYECvoePrchr-445" value="&lt;div style=&quot;color: rgb(204, 204, 204); background-color: rgb(31, 31, 31); font-family: Consolas, &amp;quot;Courier New&amp;quot;, monospace; font-size: 14px; line-height: 19px; white-space: pre;&quot;&gt;&lt;div style=&quot;line-height: 19px;&quot;&gt;&lt;div style=&quot;line-height: 19px;&quot;&gt;&lt;div style=&quot;line-height: 19px;&quot;&gt;&lt;span style=&quot;color: #9cdcfe;&quot;&gt;ESTADO_RUN_CANCELLED&lt;/span&gt;&lt;/div&gt;&lt;/div&gt;&lt;/div&gt;&lt;/div&gt;" style="shape=card;whiteSpace=wrap;html=1;fillColor=#f8cecc;strokeColor=#b85450;" vertex="1" parent="aYIWuo1kJYECvoePrchr-429">
          <mxGeometry x="390" y="517.5" width="50" height="60" as="geometry" />
        </mxCell>
        <mxCell id="aYIWuo1kJYECvoePrchr-446" style="edgeStyle=orthogonalEdgeStyle;rounded=0;orthogonalLoop=1;jettySize=auto;html=1;entryX=1;entryY=0.5;entryDx=0;entryDy=0;" edge="1" parent="aYIWuo1kJYECvoePrchr-429" source="aYIWuo1kJYECvoePrchr-447" target="aYIWuo1kJYECvoePrchr-464">
          <mxGeometry relative="1" as="geometry" />
        </mxCell>
        <mxCell id="aYIWuo1kJYECvoePrchr-447" value="&lt;br&gt;&lt;div style=&quot;color: #cccccc;background-color: #1f1f1f;font-family: Consolas, &#39;Courier New&#39;, monospace;font-weight: normal;font-size: 14px;line-height: 19px;white-space: pre;&quot;&gt;&lt;div&gt;&lt;span style=&quot;color: #9cdcfe;&quot;&gt;ESTADO_RUN_EXPIRED&lt;/span&gt;&lt;/div&gt;&lt;/div&gt;&lt;br&gt;10 MIN" style="shape=card;whiteSpace=wrap;html=1;fillColor=#ffe6cc;strokeColor=#d79b00;" vertex="1" parent="aYIWuo1kJYECvoePrchr-429">
          <mxGeometry x="630" y="527.5" width="70" height="72.5" as="geometry" />
        </mxCell>
        <mxCell id="aYIWuo1kJYECvoePrchr-448" style="edgeStyle=orthogonalEdgeStyle;rounded=0;orthogonalLoop=1;jettySize=auto;html=1;entryX=0;entryY=0.5;entryDx=0;entryDy=0;" edge="1" parent="aYIWuo1kJYECvoePrchr-429" source="aYIWuo1kJYECvoePrchr-449" target="aYIWuo1kJYECvoePrchr-464">
          <mxGeometry relative="1" as="geometry" />
        </mxCell>
        <mxCell id="aYIWuo1kJYECvoePrchr-449" value="&lt;div style=&quot;color: rgb(204, 204, 204); background-color: rgb(31, 31, 31); font-family: Consolas, &amp;quot;Courier New&amp;quot;, monospace; font-size: 14px; line-height: 19px; white-space: pre;&quot;&gt;&lt;div style=&quot;line-height: 19px;&quot;&gt;&lt;div style=&quot;line-height: 19px;&quot;&gt;&lt;div style=&quot;line-height: 19px;&quot;&gt;&lt;span style=&quot;color: #9cdcfe;&quot;&gt;ESTADO_RUN_FAILED&lt;/span&gt;&lt;/div&gt;&lt;/div&gt;&lt;/div&gt;&lt;/div&gt;" style="shape=card;whiteSpace=wrap;html=1;fillColor=#f8cecc;strokeColor=#b85450;" vertex="1" parent="aYIWuo1kJYECvoePrchr-429">
          <mxGeometry x="300" y="607.5" width="50" height="60" as="geometry" />
        </mxCell>
        <mxCell id="aYIWuo1kJYECvoePrchr-450" style="edgeStyle=orthogonalEdgeStyle;rounded=0;orthogonalLoop=1;jettySize=auto;html=1;" edge="1" parent="aYIWuo1kJYECvoePrchr-429" source="aYIWuo1kJYECvoePrchr-451" target="aYIWuo1kJYECvoePrchr-464">
          <mxGeometry relative="1" as="geometry" />
        </mxCell>
        <mxCell id="aYIWuo1kJYECvoePrchr-451" value="&lt;div style=&quot;color: rgb(204, 204, 204); background-color: rgb(31, 31, 31); font-family: Consolas, &amp;quot;Courier New&amp;quot;, monospace; font-size: 14px; line-height: 19px; white-space: pre;&quot;&gt;&lt;div style=&quot;line-height: 19px;&quot;&gt;&lt;div style=&quot;line-height: 19px;&quot;&gt;&lt;div style=&quot;line-height: 19px;&quot;&gt;&lt;span style=&quot;color: #9cdcfe;&quot;&gt;ESTADO_RUN_COMPLETED&lt;/span&gt;&lt;/div&gt;&lt;/div&gt;&lt;/div&gt;&lt;/div&gt;" style="shape=card;whiteSpace=wrap;html=1;fillColor=#d5e8d4;strokeColor=#82b366;" vertex="1" parent="aYIWuo1kJYECvoePrchr-429">
          <mxGeometry x="510" y="597.5" width="50" height="60" as="geometry" />
        </mxCell>
        <mxCell id="aYIWuo1kJYECvoePrchr-452" style="edgeStyle=orthogonalEdgeStyle;rounded=0;orthogonalLoop=1;jettySize=auto;html=1;entryX=0;entryY=0;entryDx=30;entryDy=0;entryPerimeter=0;" edge="1" parent="aYIWuo1kJYECvoePrchr-429" source="aYIWuo1kJYECvoePrchr-433" target="aYIWuo1kJYECvoePrchr-447">
          <mxGeometry relative="1" as="geometry">
            <Array as="points">
              <mxPoint x="660" y="457.5" />
            </Array>
          </mxGeometry>
        </mxCell>
        <mxCell id="aYIWuo1kJYECvoePrchr-453" value="" style="edgeStyle=orthogonalEdgeStyle;rounded=0;orthogonalLoop=1;jettySize=auto;html=1;entryX=0.5;entryY=1;entryDx=0;entryDy=0;entryPerimeter=0;" edge="1" parent="aYIWuo1kJYECvoePrchr-429" source="aYIWuo1kJYECvoePrchr-433" target="aYIWuo1kJYECvoePrchr-454">
          <mxGeometry relative="1" as="geometry">
            <mxPoint x="400" y="337.5" as="sourcePoint" />
            <mxPoint x="410" y="277.5" as="targetPoint" />
          </mxGeometry>
        </mxCell>
        <mxCell id="aYIWuo1kJYECvoePrchr-454" value="RETRY" style="ellipse;whiteSpace=wrap;html=1;aspect=fixed;fillColor=#ffe6cc;strokeColor=#d79b00;" vertex="1" parent="aYIWuo1kJYECvoePrchr-429">
          <mxGeometry x="385" y="297.5" width="30" height="30" as="geometry" />
        </mxCell>
        <mxCell id="aYIWuo1kJYECvoePrchr-455" value="STOP" style="ellipse;whiteSpace=wrap;html=1;aspect=fixed;fillColor=#f8cecc;strokeColor=#b85450;" vertex="1" parent="aYIWuo1kJYECvoePrchr-429">
          <mxGeometry x="550" y="437.5" width="30" height="30" as="geometry" />
        </mxCell>
        <mxCell id="aYIWuo1kJYECvoePrchr-456" style="edgeStyle=orthogonalEdgeStyle;rounded=0;orthogonalLoop=1;jettySize=auto;html=1;entryX=0;entryY=0;entryDx=40;entryDy=0;entryPerimeter=0;" edge="1" parent="aYIWuo1kJYECvoePrchr-429" source="aYIWuo1kJYECvoePrchr-459" target="aYIWuo1kJYECvoePrchr-445">
          <mxGeometry relative="1" as="geometry" />
        </mxCell>
        <mxCell id="aYIWuo1kJYECvoePrchr-457" style="edgeStyle=orthogonalEdgeStyle;rounded=0;orthogonalLoop=1;jettySize=auto;html=1;entryX=0;entryY=0;entryDx=40;entryDy=0;entryPerimeter=0;" edge="1" parent="aYIWuo1kJYECvoePrchr-429" source="aYIWuo1kJYECvoePrchr-433" target="aYIWuo1kJYECvoePrchr-451">
          <mxGeometry relative="1" as="geometry">
            <Array as="points">
              <mxPoint x="400" y="477.5" />
              <mxPoint x="550" y="477.5" />
            </Array>
          </mxGeometry>
        </mxCell>
        <mxCell id="aYIWuo1kJYECvoePrchr-458" value="" style="edgeStyle=orthogonalEdgeStyle;rounded=0;orthogonalLoop=1;jettySize=auto;html=1;entryX=0;entryY=0;entryDx=40;entryDy=0;entryPerimeter=0;" edge="1" parent="aYIWuo1kJYECvoePrchr-429" source="aYIWuo1kJYECvoePrchr-433" target="aYIWuo1kJYECvoePrchr-459">
          <mxGeometry relative="1" as="geometry">
            <mxPoint x="400" y="457.5" as="sourcePoint" />
            <mxPoint x="430" y="517.5" as="targetPoint" />
          </mxGeometry>
        </mxCell>
        <mxCell id="aYIWuo1kJYECvoePrchr-459" value="STOP" style="ellipse;whiteSpace=wrap;html=1;aspect=fixed;fillColor=#f8cecc;strokeColor=#b85450;" vertex="1" parent="aYIWuo1kJYECvoePrchr-429">
          <mxGeometry x="390" y="467.5" width="30" height="30" as="geometry" />
        </mxCell>
        <mxCell id="aYIWuo1kJYECvoePrchr-460" value="" style="edgeStyle=orthogonalEdgeStyle;rounded=0;orthogonalLoop=1;jettySize=auto;html=1;" edge="1" parent="aYIWuo1kJYECvoePrchr-429" source="aYIWuo1kJYECvoePrchr-433" target="aYIWuo1kJYECvoePrchr-461">
          <mxGeometry relative="1" as="geometry">
            <mxPoint x="340" y="447.5" as="sourcePoint" />
            <mxPoint x="185" y="537.5" as="targetPoint" />
            <Array as="points">
              <mxPoint x="270" y="437.5" />
              <mxPoint x="270" y="452.5" />
            </Array>
          </mxGeometry>
        </mxCell>
        <mxCell id="aYIWuo1kJYECvoePrchr-461" value="STOP" style="ellipse;whiteSpace=wrap;html=1;aspect=fixed;fillColor=#f8cecc;strokeColor=#b85450;" vertex="1" parent="aYIWuo1kJYECvoePrchr-429">
          <mxGeometry x="170" y="437.5" width="30" height="30" as="geometry" />
        </mxCell>
        <mxCell id="aYIWuo1kJYECvoePrchr-462" value="" style="endArrow=none;html=1;rounded=0;" edge="1" parent="aYIWuo1kJYECvoePrchr-429">
          <mxGeometry width="50" height="50" relative="1" as="geometry">
            <mxPoint x="620" y="337.5" as="sourcePoint" />
            <mxPoint x="670" y="287.5" as="targetPoint" />
          </mxGeometry>
        </mxCell>
        <mxCell id="aYIWuo1kJYECvoePrchr-463" style="edgeStyle=orthogonalEdgeStyle;rounded=0;orthogonalLoop=1;jettySize=auto;html=1;entryX=0.5;entryY=1;entryDx=0;entryDy=0;" edge="1" parent="aYIWuo1kJYECvoePrchr-429" source="aYIWuo1kJYECvoePrchr-464" target="aYIWuo1kJYECvoePrchr-429">
          <mxGeometry relative="1" as="geometry" />
        </mxCell>
        <mxCell id="aYIWuo1kJYECvoePrchr-464" value="END RUN" style="ellipse;whiteSpace=wrap;html=1;aspect=fixed;fillColor=#d5e8d4;strokeColor=#82b366;" vertex="1" parent="aYIWuo1kJYECvoePrchr-429">
          <mxGeometry x="365" y="667.5" width="130" height="130" as="geometry" />
        </mxCell>
        <mxCell id="aYIWuo1kJYECvoePrchr-465" style="edgeStyle=orthogonalEdgeStyle;rounded=0;orthogonalLoop=1;jettySize=auto;html=1;entryX=0.402;entryY=0.031;entryDx=0;entryDy=0;entryPerimeter=0;" edge="1" parent="aYIWuo1kJYECvoePrchr-429" source="aYIWuo1kJYECvoePrchr-445" target="aYIWuo1kJYECvoePrchr-464">
          <mxGeometry relative="1" as="geometry" />
        </mxCell>
        <mxCell id="aYIWuo1kJYECvoePrchr-466" style="edgeStyle=orthogonalEdgeStyle;rounded=0;orthogonalLoop=1;jettySize=auto;html=1;entryX=0.006;entryY=0.416;entryDx=0;entryDy=0;entryPerimeter=0;" edge="1" parent="aYIWuo1kJYECvoePrchr-429" source="aYIWuo1kJYECvoePrchr-444" target="aYIWuo1kJYECvoePrchr-464">
          <mxGeometry relative="1" as="geometry" />
        </mxCell>
        <mxCell id="aYIWuo1kJYECvoePrchr-467" value="&lt;div&gt;GET&lt;/div&gt;&lt;div&gt;STATUS&lt;/div&gt;" style="text;html=1;align=center;verticalAlign=middle;resizable=0;points=[];autosize=1;strokeColor=none;fillColor=none;" vertex="1" parent="aYIWuo1kJYECvoePrchr-196">
          <mxGeometry x="880" y="1045" width="70" height="40" as="geometry" />
        </mxCell>
        <mxCell id="aYIWuo1kJYECvoePrchr-468" value="" style="endArrow=classic;html=1;rounded=0;exitX=0.5;exitY=1;exitDx=0;exitDy=0;entryX=0.422;entryY=0.213;entryDx=0;entryDy=0;entryPerimeter=0;" edge="1" parent="aYIWuo1kJYECvoePrchr-196" source="aYIWuo1kJYECvoePrchr-416" target="aYIWuo1kJYECvoePrchr-428">
          <mxGeometry width="50" height="50" relative="1" as="geometry">
            <mxPoint x="1190" y="1050" as="sourcePoint" />
            <mxPoint x="1240" y="1000" as="targetPoint" />
          </mxGeometry>
        </mxCell>
        <mxCell id="aYIWuo1kJYECvoePrchr-469" value="" style="swimlane;startSize=0;" vertex="1" collapsed="1" parent="aYIWuo1kJYECvoePrchr-196">
          <mxGeometry x="720" y="1270" width="170" height="90" as="geometry">
            <mxRectangle x="890" y="1940" width="550" height="160" as="alternateBounds" />
          </mxGeometry>
        </mxCell>
        <mxCell id="aYIWuo1kJYECvoePrchr-470" value="" style="whiteSpace=wrap;html=1;fillColor=#f8cecc;strokeColor=#b85450;" vertex="1" parent="aYIWuo1kJYECvoePrchr-469">
          <mxGeometry x="10" y="20" width="410" height="130" as="geometry" />
        </mxCell>
        <mxCell id="aYIWuo1kJYECvoePrchr-471" value="MESSAGES&lt;div&gt;THREAD&lt;/div&gt;&lt;div&gt;OPENAI&lt;/div&gt;" style="whiteSpace=wrap;html=1;aspect=fixed;" vertex="1" parent="aYIWuo1kJYECvoePrchr-469">
          <mxGeometry x="200" y="40" width="70" height="70" as="geometry" />
        </mxCell>
        <mxCell id="aYIWuo1kJYECvoePrchr-472" value="thread_id" style="shape=step;perimeter=stepPerimeter;whiteSpace=wrap;html=1;fixedSize=1;" vertex="1" parent="aYIWuo1kJYECvoePrchr-469">
          <mxGeometry x="20" y="45" width="140" height="20" as="geometry" />
        </mxCell>
        <mxCell id="aYIWuo1kJYECvoePrchr-473" style="edgeStyle=orthogonalEdgeStyle;rounded=0;orthogonalLoop=1;jettySize=auto;html=1;entryX=0.194;entryY=0.006;entryDx=0;entryDy=0;entryPerimeter=0;" edge="1" parent="aYIWuo1kJYECvoePrchr-196" source="aYIWuo1kJYECvoePrchr-428" target="aYIWuo1kJYECvoePrchr-469">
          <mxGeometry relative="1" as="geometry" />
        </mxCell>
        <mxCell id="aYIWuo1kJYECvoePrchr-474" value="&lt;div&gt;GET&lt;/div&gt;&lt;div&gt;MESSAGES&lt;/div&gt;&lt;div&gt;END&lt;/div&gt;" style="text;html=1;align=center;verticalAlign=middle;resizable=0;points=[];autosize=1;strokeColor=none;fillColor=none;" vertex="1" parent="aYIWuo1kJYECvoePrchr-196">
          <mxGeometry x="750" y="1160" width="90" height="60" as="geometry" />
        </mxCell>
        <mxCell id="aYIWuo1kJYECvoePrchr-475" value="" style="shape=flexArrow;endArrow=classic;html=1;rounded=0;exitX=0.5;exitY=1;exitDx=0;exitDy=0;" edge="1" parent="aYIWuo1kJYECvoePrchr-196">
          <mxGeometry width="50" height="50" relative="1" as="geometry">
            <mxPoint x="800" y="1360.0000000000005" as="sourcePoint" />
            <mxPoint x="763.0526315789471" y="1450.0000000000005" as="targetPoint" />
          </mxGeometry>
        </mxCell>
        <mxCell id="aYIWuo1kJYECvoePrchr-476" value="sync assist" style="text;html=1;align=center;verticalAlign=middle;whiteSpace=wrap;rounded=0;fontSize=30;" vertex="1" parent="1">
          <mxGeometry x="700" y="650" width="160" height="70" as="geometry" />
        </mxCell>
      </root>
    </mxGraphModel>
  </diagram>
</mxfile>
